<?xml version="1.0" encoding="UTF-8" standalone="no"?>
<!-- Created with Inkscape (http://www.inkscape.org/) -->
<svg
   xmlns:svg="http://www.w3.org/2000/svg"
   xmlns="http://www.w3.org/2000/svg"
   xmlns:inkscape="http://www.inkscape.org/namespaces/inkscape"
   version="1.0"
   width="1064.8351"
   height="1063.2458"
   id="svg2">
  <defs
     id="defs4">
    <filter
       id="filter4152">
      <feGaussianBlur
         id="feGaussianBlur4154"
         stdDeviation="5.1146345"
         inkscape:collect="always" />
    </filter>
    <filter
       id="filter4156">
      <feGaussianBlur
         id="feGaussianBlur4158"
         stdDeviation="5.1146345"
         inkscape:collect="always" />
    </filter>
    <filter
       id="filter6301">
      <feGaussianBlur
         id="feGaussianBlur6303"
         stdDeviation="5.0908448"
         inkscape:collect="always" />
    </filter>
    <filter
       id="filter6305">
      <feGaussianBlur
         id="feGaussianBlur6307"
         stdDeviation="5.0908448"
         inkscape:collect="always" />
    </filter>
  </defs>
  <g
     transform="translate(83.14286,-299.1164)"
     style="opacity:1;display:inline"
     id="layer2">
    <path
       d="M 237.875,305.625 C 225.15825,307.03223 210.46571,303.37015 199.65625,311.8125 C 192.16603,312.36835 183.23206,309.51349 177.34375,315.6875 C 174.15899,317.78835 173.10766,322.99435 170.1875,324.5625 C 161.61475,323.43313 154.13777,331.75757 153.34375,339 C 142.73153,334.5984 128.92119,341.31486 126.75,352.75 C 118.54263,360.26135 104.07439,362.64801 101.59375,375.1875 C 100.91286,388.83971 113.5654,397.51234 120.46875,407.84375 C 128.08091,417.16055 133.08459,429.24681 130.58276,441.3433 C 130.68734,452.8555 129.07956,464.31031 124.40625,474.75 C 124.57769,476.77476 122.12887,481.40858 120.3125,477.8125 C 114.77294,472.18953 105.8354,472.86879 99.53125,476.40625 C 91.73213,477.14941 84.937669,481.64131 76.96875,481.28125 C 62.062584,484.45127 53.845523,499.09348 49.6875,512.5 C 47.763801,514.34702 43.878373,510.89519 41.349712,511.10474 C 32.902518,508.00057 20.068138,506.97776 15.75,516.875 C 11.725851,525.86255 17.167752,535.6388 23.8125,541.53125 C 25.991686,548.93293 19.829968,555.69814 19.1875,563.03125 C 15.223935,576.00752 15.392855,589.75954 16.8125,603.09375 C 16.976478,621.79032 12.226976,641.05651 17.1875,659.375 C 19.012043,662.71589 22.370335,665.12376 25.84375,666.34375 C 23.284629,685.01055 25.114107,705.96872 12.9375,721.65625 C 3.8507935,737.04067 -9.0743388,751.13791 -12.90625,768.875 C -10.460657,780.44805 3.3835229,782.96796 13.47926,783.64011 C 27.64357,786.67247 42.060573,788.47078 56.125,791.96875 C 56.508219,807.49568 45.839111,822.91495 51.59375,838.3125 C 59.482566,848.21131 73.573717,843.90886 84.5,844.74939 C 358.91306,844.50711 633.35523,845.24708 907.75,844.375 C 925.21357,838.00067 932.25416,811.55074 918.28125,798.625 C 916.40736,797.09905 911.93601,796.55231 911.25,796.1875 C 917.20168,794.58949 922.03527,790.13612 922.59375,783.78125 C 925.46774,771.7511 926.05848,758.60065 922.46875,746.75 C 920.06188,745.10001 917.71374,743.30019 918.75,740.125 C 917.08549,729.02374 918.02408,714.62059 907.875,707.25 C 894.71867,702.96366 881.66295,710.19726 868.54631,710.80635 C 832.82299,716.99964 797.34371,725.29854 761.375,729.625 C 762.83413,717.89115 763.42833,705.21388 759.3125,694.03125 C 753.25382,683.96348 741.47206,678.95908 735.46875,668.90625 C 731.82955,665.34423 729.2882,660.14783 731.37902,655.12721 C 732.09105,639.47362 735.55818,622.33206 728.1875,607.75 C 721.37801,597.47362 705.94539,594.45307 696.25,602.375 C 688.46328,606.95699 686.28867,616.5732 681.90625,623.5625 C 671.05001,627.01747 663.34979,636.02772 656.59375,644.75 C 628.39121,648.88725 600.78039,656.26544 572.625,660.65625 C 567.64639,646.36655 566.69421,628.99742 555.46875,617.84375 C 553.90177,616.6676 550.16991,617.99687 550.9375,614.9375 C 544.93215,602.99643 534.49759,593.42891 531.125,580.15625 C 528.47333,575.61555 528.49835,570.63402 530.1875,565.90625 C 530.27154,555.82951 524.12446,547.10374 523.61067,537.13142 C 521.20274,526.38102 518.85727,515.57823 516,504.90625 C 525.82831,503.32146 539.03041,498.87757 539.5,487.09375 C 539.68098,476.59533 531.66003,466.72777 535.5,456.15625 C 535.59233,448.98703 529.41151,443.29325 530.4375,435.96875 C 529.74152,431.55362 527.15434,427.44163 524.125,424.4375 C 532.36946,418.92959 532.79527,406.94993 528.125,399 C 525.09408,385.89757 525.11636,369.41694 513.21875,360.59375 C 508.84931,360.93753 511.31975,355.14876 510.15625,352.375 C 509.27255,340.63037 507.04737,328.73235 501.875,318.09375 C 497.96348,310.46787 488.51948,306.98722 480.65625,310.46875 C 473.00447,313.12721 465.12789,314.88271 457.0625,314.96875 C 452.10177,316.18224 448.95461,321.02428 446.25,324.53125 C 442.95015,324.31084 439.01632,327.90789 436.71875,324.03125 C 426.70082,317.60518 414.61175,322.84016 405.09375,327.375 C 401.67172,328.21503 396.21828,330.52642 394.8125,325.78125 C 388.28927,317.08395 373.68494,316.78914 367.46875,325.84375 C 361.60234,332.26237 361.58292,341.81606 359.6875,349.4375 C 356.50439,349.25508 349.51506,352.00854 349.875,346.96875 C 348.77958,335.73349 341.94883,321.70396 328.90625,322.0625 C 320.76979,321.62275 313.07856,325.99448 305.625,327.4375 C 294.94862,323.1923 285.75695,332.6064 275.84375,334.9375 C 270.89692,336.83291 266.06943,339.60427 260.65625,339.8125 C 256.88262,327.9756 255.04542,312.14906 242.40625,306.15625 C 240.95772,305.66708 239.39606,305.54111 237.875,305.625 z M 901.6875,798.1875 C 896.62417,799.4483 893.74053,804.73282 888.875,805.84375 C 889.55371,803.05911 885.11947,797.0343 890.59375,798.34375 C 894.48085,798.2876 898.37309,798.28778 902.25,797.96875 L 901.6875,798.1875 z "
       style="color:#000000;fill:#efa633;fill-opacity:1;fill-rule:evenodd;stroke:none;stroke-width:30;stroke-linecap:butt;stroke-linejoin:round;marker:none;marker-start:none;marker-mid:none;marker-end:none;stroke-miterlimit:4;stroke-dasharray:none;stroke-dashoffset:0;stroke-opacity:1;visibility:visible;display:inline;overflow:visible;filter:url(#filter6305);enable-background:accumulate"
       id="rect3172" />
    <path
       d="M 903.09375,816.5625 C 618.9689,816.98594 334.84374,816.62779 50.71875,816.75 C 49.337098,818.27323 51.414258,823.04751 48.09375,821.40625 C 37.905197,820.50889 28.445883,825.42311 21.3125,832 C 13.494786,834.71635 5.0409982,841.52542 7.03125,850.78125 C 6.3376195,858.03768 6.1982256,866.61343 12.09375,871.75 C 12.097837,875.83541 11.157339,880.01076 11.3125,884.03125 C 8.4134532,890.88473 4.2594695,897.47577 4.6955355,905.27977 C 4.7181759,908.51921 4.7372967,913.16307 0.080493553,912.3451 C -16.89037,915.41478 -35.717038,924.58188 -40.5,942.46875 C -45.775697,960.85434 -36.569012,979.25703 -30.34375,996.1875 C -30.692565,1003.2485 -41.266816,1004.3891 -41.21875,1012.1875 C -42.387315,1017.9543 -36.779357,1023.2765 -31.03125,1021.4063 C -22.658359,1020.7443 -14.584362,1018.1017 -6.90625,1014.7813 C -6.8542729,1022.8541 -6.7966707,1030.927 -6.78125,1039 C 24.041449,1036.8531 55.132206,1039.5696 85.84375,1036.5625 C 89.172501,1035.4522 89.971066,1029.3979 94.15625,1031.6563 C 97.132549,1030.8499 96.555961,1032.1942 95.8125,1034.25 C 94.069967,1041.7441 100.80263,1048.6547 108.09375,1048.625 C 111.47831,1048.9917 113.39175,1052.4954 115.5625,1053.9063 C 113.77608,1063.2533 113.90669,1076.5885 124,1081.1875 C 127.2722,1080.6557 128.4346,1084.2207 126.75,1086.5938 C 125.93812,1095.2351 134.55436,1100.3208 141.46875,1103.0625 C 153.09313,1119.8002 173.57034,1126.3129 191.59375,1133.9375 C 194.89983,1134.5991 197.00654,1135.6382 196.5625,1139.0625 C 201.43436,1152.2784 214.62071,1159.1955 224.8125,1167.8438 C 235.89073,1175.7711 249.16751,1179.5543 260.75507,1186.3991 C 262.86876,1188.3784 268.57996,1190.77 265.0155,1194.0935 C 258.86806,1204.5209 255.7016,1216.5158 256.125,1228.5938 C 255.03968,1237.3874 262.5161,1243.5297 264.5,1251.4688 C 265.34237,1255.493 270.49174,1257.3808 269.1875,1261.7188 C 268.97738,1268.1001 275.82121,1274.7291 270.53125,1280.2813 C 266.14622,1287.2304 264.6942,1297.1047 270,1303.7813 C 266.10316,1312.1661 267.1853,1324.0868 275.84375,1329.25 C 277.83445,1337.3656 287.97704,1337.74 294.75,1338.4375 C 312.41147,1338.6497 330.04367,1337.0118 347.7186,1337.5071 C 358.11511,1337.3734 368.51291,1337.2704 378.90625,1336.9688 C 379.26895,1334.0276 376.8639,1329.8998 377.46875,1328.0938 C 394.62707,1328.1568 411.78084,1326.9007 428.9375,1327.625 C 427.32958,1321.6052 423.42971,1316.1362 419.15625,1312.125 C 420.74551,1310.2884 422.08163,1307.5623 423.9375,1310.6875 C 434.77626,1319.5708 449.31571,1321.8327 459.74624,1331.4632 C 473.62722,1341.2574 486.62549,1353.4606 503.03125,1358.5313 C 516.31853,1359.5937 526.79539,1348.0457 530.8125,1336.4375 C 537.63854,1331.0883 547.48425,1335.7106 554.875,1331.1875 C 560.06949,1328.7264 565.9372,1329.031 571.375,1328.9063 C 579.29333,1324.8733 576.45683,1313.5301 571.75,1308.1563 C 572.31626,1305.1409 577.3997,1304.6041 578.88622,1301.9165 C 585.83197,1296.3004 592.76457,1290.6681 599.71875,1285.0625 C 598.63029,1282.2848 593.82856,1282.2216 593.09375,1281.3125 C 597.61849,1278.13 603.81341,1279.9482 608.09375,1276.0938 C 613.81175,1272.563 617.89513,1267.0233 621.40625,1261.5313 C 631.867,1267.7821 647.5706,1259.1982 646.75,1246.5938 C 647.03576,1236.3279 652.68657,1226.5411 662.28125,1222.3438 C 664.63821,1220.4051 674.59216,1216.7667 670.79842,1215.9573 C 666.87609,1215.948 664.8054,1215.5219 667.9375,1212.5313 C 671.1485,1207.787 672.35517,1199.6168 679.375,1199.5938 C 685.97828,1197.4802 690.97904,1191.0662 691.78125,1184.2188 C 707.88802,1180.9095 727.18374,1181.8235 739.21875,1168.875 C 740.63881,1166.9088 740.66093,1163.8611 743.6875,1164.1875 C 747.60247,1162.616 751.99997,1160.7585 755.84375,1163.2813 C 765.014,1163.5011 773.54094,1159.8229 782.70053,1159.6056 C 798.69305,1157.1469 815.70123,1156.6052 830.75874,1150.4494 C 841.40575,1142.4645 853.18508,1134.7403 865.4375,1130.1875 C 872.33684,1135.1626 882.46924,1138.2557 884.59375,1147.4375 C 890.25881,1157.5085 901.87579,1161.891 909.03125,1170.5625 C 913.13984,1174.6873 921.91254,1175.7659 924.0625,1169.0625 C 932.7906,1157.0979 941.6499,1145.1973 950.625,1133.3438 C 944.93937,1127.3851 937.86971,1122.9716 931.9375,1117.25 C 939.31242,1111.8278 939.62879,1101.7958 941.9375,1093.9375 C 946.54445,1093.0613 950.84462,1090.1502 955.71875,1090.0625 C 963.93691,1086.7662 965.54301,1076.1011 962.96875,1068.5938 C 968.49102,1058.7591 963.76416,1044.9825 953.59375,1040.3125 C 950.16219,1035.5073 947.19977,1030.5078 943.46875,1026 C 949.0653,1019.9223 952.10366,1012.1156 954.78125,1004.4063 C 936.00588,991.61458 915.3883,980.85884 897.53125,967.3125 C 903.13081,961.30587 915.02907,961.57805 916.96875,952.125 C 919.17039,946.61397 915.97804,940.30975 913.34375,936.21875 C 923.10136,931.39263 936.80521,935.49474 944.21875,925.71875 C 948.48459,919.00484 940.48865,913.27526 938.34375,907.59375 C 930.15345,893.04524 920.3573,879.21942 914.03125,863.875 C 915.27092,854.70473 912.63859,844.09127 919.03125,836.3125 C 923.01357,828.20696 917.70006,816.54887 908.09375,816.59375 C 906.43212,816.4453 904.75806,816.48083 903.09375,816.5625 z "
       style="color:#000000;fill:#dd3817;fill-opacity:1;fill-rule:evenodd;stroke:none;stroke-width:30;stroke-linecap:butt;stroke-linejoin:miter;marker:none;marker-start:none;marker-mid:none;marker-end:none;stroke-miterlimit:4;stroke-dasharray:none;stroke-dashoffset:0;stroke-opacity:1;visibility:visible;display:inline;overflow:visible;filter:url(#filter6301);enable-background:accumulate"
       id="rect3174" />
  </g>
  <g
     style="display:inline"
     id="layer3">
    <path
       d="M 136.24998,487.93706 L 115.86619,495.44269 L 109.39239,486.6044 L 105.85411,492.20319 L 101.70712,494.0048 L 100.56583,489.61832 C 92.468651,492.90789 83.714068,494.66352 74.69793,495.80886 C 62.219647,510.20866 62.433832,517.98392 60.398986,526.85484 C 50.202551,526.93875 38.543228,526.31688 30.018657,522.03257 C 28.569444,521.44379 27.214988,522.94061 27.684747,523.55451 C 31.600859,528.67226 39.051948,538.73694 38.578195,542.40667 C 38.149714,545.72572 28.692532,581.4671 28.692532,581.4671 L 30.621442,591.47331 L 28.451418,652.59564 C 32.376999,653.16059 36.461795,652.99763 40.989332,655.36845 L 34.599818,711.54795 C 23.425465,730.13311 12.303606,748.73139 -0.12055686,767.0041 L 68.114625,779.66257 C 72.688465,794.94274 66.2588,815.55795 60.760656,835.72151 L 38.698751,835.96262 C 31.867774,842.39047 25.867417,846.16034 20.615223,847.53608 L 20.615223,861.15901 L 26.160838,863.6907 L 24.352485,893.82991 L 20.73578,894.07103 L 15.551835,921.44701 L 14.762064,923.86498 L -8.0400279,928.8756 C -22.874435,934.07704 -28.645493,943.13522 -28.655484,954.64492 C -29.933292,956.40191 -20.214553,988.9338 -18.141601,988.24811 C -16.417737,989.09904 -17.140056,1004.1059 -17.812736,1004.2404 L 6.5969459,993.60813 L 6.8031005,1024.5313 L 22.470847,1024.119 C 23.725532,1025.1475 25.124382,1025.5993 27.006247,1024.119 L 79.163351,1023.9129 L 82.049515,1018.3467 L 96.892644,1017.7282 L 104.10805,1016.9036 L 104.93267,1012.7805 L 107.40653,1010.719 L 109.67423,1012.5744 L 118.95118,1010.5128 L 110.29269,1035.0452 L 122.86812,1039.3744 L 123.28043,1042.4668 L 126.99121,1043.0852 L 128.64045,1045.3529 L 128.8466,1068.4422 L 133.79431,1068.4422 L 142.86511,1082.8731 L 140.1851,1086.79 L 154.61592,1094.6239 L 153.99746,1097.7162 C 161.52842,1104.7998 172.143,1111.9921 184.9771,1116.2023 C 188.93045,1117.4992 192.49963,1118.4133 196.441,1121.9901 L 209.78728,1124.9026 L 210.02153,1137.1002 C 224.5467,1150.5204 237.57951,1164.0188 260.43528,1169.2792 C 268.52379,1174.3811 276.23364,1180.7272 282.96058,1190.3028 L 270.73256,1214.3298 C 270.73256,1214.3298 270.80053,1229.44 270.15695,1232.2288 C 272.43063,1233.6917 278.1728,1246.3034 277.70956,1247.5582 L 291.74553,1248.4342 C 290.13068,1251.3247 288.73411,1253.2487 286.75372,1255.183 C 284.92762,1257.3802 283.4341,1258.7217 283.00687,1261.7633 L 288.10921,1277.6151 C 285.60671,1282.8358 283.67912,1286.1716 281.31249,1290.4246 C 279.93382,1292.8608 279.94619,1295.0206 281.26174,1295.9561 L 286.58439,1298.146 C 286.58439,1298.146 282.10247,1313.3948 281.45889,1315.9691 C 280.96187,1317.0778 288.05189,1318.5897 288.05189,1318.5897 L 287.14874,1323.319 C 292.94096,1324.8051 298.13503,1326.064 304.4026,1324.6071 L 361.35236,1323.7338 L 361.70779,1314.9321 L 401.46317,1314.0846 L 400.22639,1311.8821 L 415.58084,1295.2489 L 416.24169,1291.989 L 420.52413,1288.8066 L 430.98068,1297.4131 L 431.58138,1299.3356 L 440.1406,1305.5503 L 450.03425,1308.2032 L 498.79857,1342.5995 C 498.79857,1342.5995 502.32036,1346.3373 506.84521,1344.969 C 509.1485,1344.2724 512.65635,1341.0991 514.45955,1338.1946 C 517.77767,1332.85 518.44356,1328.8127 521.02777,1326.5324 C 522.29993,1325.4099 529.22831,1319.6964 538.4229,1320.3165 C 545.04654,1320.7632 551.72934,1318.365 555.49208,1316.266 L 559.99833,1315.8008 L 554.69599,1306.9644 L 552.16486,1305.9326 L 575.08315,1287.4727 L 572.49287,1282.2561 L 589.64436,1266.3758 C 603.42463,1268.846 610.20515,1256.8881 614.45984,1239.7239 L 620.82401,1234.5632 C 620.82401,1234.5632 622.59889,1239.2266 624.6908,1242.077 C 626.98425,1245.2019 626.84671,1247.7959 626.84671,1247.7959 C 629.09169,1251.7296 632.45922,1249.6358 632.85345,1247.5814 C 633.36625,1233.4355 638.40547,1224.0676 645.93957,1217.3331 L 645.56785,1212.8281 C 649.47638,1210.8493 653.80703,1208.575 656.74865,1204.8557 L 662.25745,1194.0983 L 669.76797,1186.3054 C 672.48329,1186.1684 674.17468,1186.8316 677.26046,1185.5832 C 677.48951,1183.7449 677.84192,1182.1534 676.36723,1176.9076 C 677.47964,1175.5253 678.69972,1175.0044 679.6362,1172.2146 C 687.30825,1171.9617 693.88263,1170.2479 700.97195,1168.2468 C 710.63981,1169.105 719.78394,1165.7859 728.53231,1161.1272 L 729.39042,1153.8333 L 757.70793,1145.6813 L 759.20961,1149.3282 L 821.63685,1140.3181 C 836.5822,1128.5021 851.52756,1121.2401 866.47291,1113.7168 L 899.08095,1135.813 L 896.72116,1141.1762 L 915.81403,1157.4802 L 932.11805,1135.5985 L 912.59613,1119.2945 L 918.38835,1107.0665 L 925.2532,1104.9212 L 928.4711,1092.2641 C 929.68558,1087.9895 927.91662,1082.7656 935.33595,1080.4652 L 942.84438,1079.8216 L 943.70248,1077.4618 L 950.4844,1076.8921 C 951.30761,1072.661 947.80673,1071.2346 942.97597,1070.6708 L 942.24226,1058.3528 L 948.46354,1058.7818 L 948.79343,1063.4346 L 950.78186,1063.303 L 950.99639,1054.9365 L 947.34944,1054.722 L 924.7917,1023.7887 C 930.76157,1020.6918 935.2789,1015.8091 937.8688,1010.1004 L 878.79288,972.68086 L 884.41021,965.13279 L 884.70767,959.90122 C 887.61034,958.12516 890.47506,956.1783 893.07421,953.03637 L 904.01506,947.88773 C 903.00179,945.89734 901.4857,943.77463 897.57927,941.02288 L 897.2079,932.40937 C 902.00825,928.03703 906.86803,923.68346 914.52687,920.2138 C 919.53322,919.9764 924.95337,920.29075 929.11468,918.92664 C 916.09646,896.49849 909.52715,886.79639 901.98517,871.11966 L 899.72453,871.08721 L 902.08433,835.69032 C 906.07913,830.86933 909.80407,826.01236 911.5235,820.88799 L 911.95255,810.59071 L 906.80391,810.59071 L 899.8399,818.20549 C 891.66461,820.00974 883.68835,820.61979 876.12661,818.74272 L 873.12323,785.4911 L 909.80728,783.13131 L 911.73802,754.17022 L 907.44749,754.38474 L 902.05908,718.98786 L 762.45996,744.64811 L 737.17106,741.13458 C 744.55816,739.84375 745.69746,734.75201 748.02899,730.57229 L 748.67257,703.32742 C 745.84302,699.08917 743.17364,693.47394 739.94859,693.84465 C 736.98731,694.18505 723.89793,675.42882 715.87524,666.21431 L 717.57995,659.46259 L 719.30767,619.23299 L 712.01376,610.86645 L 701.94003,615.11552 L 693.30848,633.89471 L 680.26383,639.18396 C 679.14713,641.66075 678.3374,644.37873 675.15283,645.23078 C 669.45889,646.72158 669.29168,656.07973 665.03244,656.91576 L 568.81651,675.80163 L 563.00973,676.08254 L 548.99698,629.74479 L 540.39249,629.74479 C 539.65731,626.81293 538.9972,623.88106 539.31986,620.9492 C 531.94796,612.00814 526.78618,602.53507 521.96756,594.52244 C 519.14625,589.83104 518.21558,584.35746 516.39108,579.25257 C 514.94352,575.20234 513.13559,571.64889 511.86045,567.74661 L 516.79456,566.0304 L 511.51658,547.72373 C 508.05227,530.09548 504.10172,512.20939 498.50211,494.73365 L 526.01921,487.29914 L 518.08172,456.40731 L 521.36633,456.02692 C 521.24149,455.16358 522.32692,452.79297 519.90335,452.79692 L 516.71163,446.48139 L 516.43222,435.16917 L 509.68274,435.15295 C 508.84805,427.54373 507.69771,420.13179 505.63918,413.28746 L 517.30655,412.38789 L 508.29643,372.99793 L 500.70507,372.95646 L 495.06969,353.22001 L 497.05812,351.07475 C 496.1473,347.00918 489.94637,323.44538 489.12063,322.32819 L 468.31155,327.90588 L 459.73049,328.1204 L 459.51596,340.13389 L 442.56836,338.84673 L 431.62751,343.13727 L 431.41298,337.7741 L 429.48224,334.98525 L 421.1157,334.77073 L 413.3537,339.98241 L 388.73389,343.17203 L 381.65694,331.80904 L 375.77609,337.1915 C 375.05154,345.04223 373.58413,355.0971 371.95192,359.65971 L 367.40336,362.90775 L 365.70888,361.41262 L 357.43583,363.9045 L 338.59718,362.30969 L 336.05272,356.2295 C 337.37508,348.49767 334.1714,341.77478 331.12153,335.09832 C 326.10454,336.22529 321.66442,337.10665 316.58973,337.41166 C 313.65538,339.32772 311.51129,340.91166 309.59166,342.97268 C 300.73715,342.90291 303.08507,341.26182 300.54163,339.92983 C 299.67033,339.62702 297.81678,340.03311 296.76226,340.65283 C 294.65376,341.89196 287.8657,345.25863 282.58513,346.96714 C 274.92201,349.02461 271.57388,351.08209 268.92411,353.13956 L 250.58384,352.94021 L 239.22085,319.15027 L 209.81662,320.04734 L 207.32474,325.23046 L 189.6822,325.13079 L 189.38318,327.32364 L 186.39292,325.13079 L 177.02343,343.37138 L 167.0559,337.68988 L 175.50712,355.0385 C 176.35268,357.05279 175.21914,357.32082 173.46652,357.0426 L 163.86628,351.24573 L 157.11465,357.71915 L 153.26171,354.2851 L 147.77183,351.64954 L 141.30789,351.88577 L 138.65901,361.29176 L 114.43789,376.8623 C 121.06298,385.96178 127.28519,395.16197 135.06011,403.97399 C 139.41051,410.9176 143.90756,418.00759 144.802,429.0082 L 142.97007,466.08743 L 137.33567,476.91006 L 136.24998,487.93706 z "
       transform="translate(83.14286,-299.1164)"
       style="opacity:1;fill:#d3d7cf;fill-rule:evenodd;stroke:none;stroke-width:2;stroke-linecap:butt;stroke-linejoin:round;stroke-miterlimit:4;stroke-dasharray:none;stroke-opacity:1;display:inline"
       id="path2067" />
  </g>
  <g
     transform="translate(83.14286,-299.1164)"
     style="opacity:1;display:inline"
     id="layer5">
    <path
       d="M 121.32262,352.17512 L 104.02637,363.24969 L 109.87474,376.81294 C 118.23557,383.30525 124.72034,393.71089 128.69921,407.69181 C 131.88542,418.8875 137.94957,430.53512 139.77379,443.40421 C 141.93426,458.64545 138.05243,472.83409 141.97858,488.42975 C 145.63308,495.805 150.79501,505.62135 161.57527,514.62708 C 171.99436,523.33109 180.65872,535.66732 193.60084,544.7079 L 205.19077,562.34323 C 206.15,566.54155 206.35571,570.92824 214.14998,573.4178 C 227.17114,588.37018 243.67188,596.61193 261.31026,602.65967 C 270.50586,606.28985 284.30915,613.92671 301.12897,624.18665 L 322.78039,672.96457 C 322.78039,672.96457 324.04636,675.99912 323.43091,679.34426 C 322.93459,682.04185 322.86524,683.99985 324.58466,687.82762 C 325.44569,689.74445 325.09142,693.76253 325.57952,696.91019 C 327.08464,706.61633 330.79443,717.30596 336.46807,728.71076 C 345.01401,744.17061 353.17543,759.75863 363.20313,774.72456 L 391.84096,802.37537 C 402.90688,815.54635 410.70681,829.3828 418.20983,843.48323 C 419.50811,845.92308 420.46188,848.63933 421.78206,851.07347 L 427.2087,860.55054 L 436.2637,872.8047 C 449.05575,886.87733 466.86173,890.81006 484.91719,891.96746 C 498.46576,890.62909 512.04812,889.37351 532.07747,903.91307 C 545.92548,914.84821 554.84824,934.50808 557.08859,966.00536 C 558.70209,979.24985 561.39033,992.41168 567.29213,1005.3263 C 572.91762,1016.0711 580.62715,1024.315 589.56572,1031.0841 C 602.69521,1041.6749 618.94616,1046.874 628.76226,1063.1879 C 633.54701,1075.2198 637.38336,1081.7984 643.76687,1103.0233 C 645.23468,1112.1166 652.18942,1131.2313 669.7167,1136.8476 C 675.4571,1138.687 676.69868,1145.4453 679.03338,1147.1805 C 680.55665,1160.7986 678.13188,1174.6921 693.09436,1187.3725 L 725.19819,1181.3997 L 720.96745,1176.7956 L 716.36342,1158.5039 C 707.36273,1148.1064 698.36205,1140.5152 689.36136,1133.7417 C 676.31112,1114.0013 662.59522,1107.2122 652.31979,1098.8571 C 654.39002,1085.6692 649.76385,1075.0039 636.1018,1057.0089 C 627.89328,1046.197 613.56732,1038.7862 601.13804,1030.9596 C 588.70476,1020.3631 579.25183,1008.028 570.77627,995.12279 C 568.23771,989.08175 566.90904,980.9234 565.6745,972.60034 C 567.7425,960.66325 570.17322,948.61008 564.18129,939.25217 C 557.63379,915.90396 548.87329,907.17709 540.0412,899.80677 C 519.38934,882.7094 497.15575,883.25496 475.02215,881.36337 C 469.82632,880.91932 464.79879,879.94936 460.16492,878.3991 C 452.88409,875.96331 446.5751,872.09493 442.11208,866.58303 C 433.07152,853.84934 428.21148,839.7537 421.23082,827.5329 C 414.28217,815.36811 409.09012,804.67751 400.16957,795.8171 C 395.43807,791.11749 389.86883,786.18394 386.42008,780.94387 C 385.87739,780.11929 386.304,779.09601 386.47837,779.04832 L 388.78315,778.41792 L 388.03622,777.58428 L 385.06789,777.93452 C 382.64033,778.22096 379.71328,775.0311 378.06896,773.14455 C 376.028,771.27648 373.4508,767.72789 371.96195,765.38176 C 369.55752,762.56383 367.49688,759.96504 365.14294,757.03943 C 352.67725,741.62261 350.40887,728.32326 344.80512,714.64978 C 339.11232,700.75902 337.21381,692.37573 336.3201,684.21925 C 336.09082,682.12673 334.35015,677.8858 333.14119,677.1865 C 331.77548,676.39654 330.8283,677.36674 330.57347,677.06374 C 333.26874,655.24672 322.99089,639.16263 313.44788,625.43099 C 297.94507,607.98011 278.01595,598.12449 257.57726,590.21632 C 235.3788,580.25536 217.00059,565.90802 205.19077,545.95863 C 200.62104,538.3696 194.14574,531.25697 186.03341,524.55359 L 171.96704,508.83684 C 163.74746,495.13129 149.03399,480.88459 147.95139,467.7738 C 152.03628,446.89102 154.71305,427.48113 146.33375,410.53441 C 133.99196,390.28036 127.08896,371.11408 121.32262,352.17512 z "
       style="fill:#0055d4;fill-rule:evenodd;stroke:none;stroke-width:0.5;stroke-linecap:round;stroke-linejoin:round;stroke-miterlimit:4;stroke-dasharray:none;stroke-opacity:1"
       id="path3121" />
  </g>
  <g
     transform="translate(83.14286,-299.1164)"
     style="opacity:1;display:inline"
     id="layer7">
    <path
       d="M 143.45033,465.64684 C 143.20457,493.79652 156.86825,515.88666 182.14861,526.79125 C 186.83584,528.80757 195.51885,534.98911 205.00824,548.79153 C 209.58479,555.44817 210.82476,564.66377 218.62713,573.34562 C 233.47031,587.83643 246.75992,594.43409 268.21328,599.08209 C 292.01432,604.22381 327.57687,632.81875 328.38633,680.49202 C 328.68379,697.98574 334.84945,718.02347 343.86223,733.18545 C 349.04767,741.90877 354.83825,751.64432 361.15478,763.62453 C 366.30891,773.14956 373.27395,781.0213 382.17971,787.94905 C 390.27399,795.16586 397.68189,802.69369 403.64379,811.33502 C 408.78237,817.1529 417.38493,831.74905 424.65607,847.36383 C 427.71814,853.93961 438.13186,878.07772 465.48407,885.58897 C 477.07065,888.77079 480.96922,887.72568 488.58839,886.97886 C 491.12403,886.73032 495.5292,886.62598 499.11741,887.03115 C 511.13528,888.38818 522.98663,892.12648 534.54917,900.63246 C 550.18631,913.70695 561.70655,932.98151 560.89775,956.90588 C 560.3586,971.66594 562.4613,980.45819 567.34391,993.4475 C 574.7534,1013.1591 587.28317,1028.5348 602.73836,1040.0892 C 617.93655,1049.2355 647.00435,1061.7508 651.64624,1104.8631 C 653.1623,1121.3959 665.10638,1136.0202 676.37608,1140.6267 C 687.79982,1145.2963 698.58728,1153.777 701.2629,1168.2734"
       style="opacity:1;fill:none;fill-rule:evenodd;stroke:#ffffff;stroke-width:2;stroke-linecap:butt;stroke-linejoin:round;stroke-miterlimit:4;stroke-dasharray:none;stroke-opacity:1;display:inline"
       id="path2061" />
    <path
       d="M 333.82194,917.21794 L 329.24078,892.86546 L 328.87911,870.20077 L 313.20672,831.50202 L 307.41999,807.87287 L 276.66194,750.03507 L 274.13935,740.14658 L 273.4563,731.90441"
       style="opacity:1;fill:none;fill-rule:evenodd;stroke:#ffffff;stroke-width:2;stroke-linecap:butt;stroke-linejoin:round;stroke-miterlimit:4;stroke-dasharray:none;stroke-opacity:1;display:inline"
       id="path2063" />
    <path
       d="M 276.0752,984.9709 L 289.45702,918.90574 L 312.72449,923.12523 L 359.62111,909.98453 L 359.86222,908.65841 L 365.76951,907.09117 L 367.33675,908.53785 L 369.02454,907.93507 L 374.69071,914.08347 L 377.22241,921.91966 L 385.54083,931.56421 L 393.61814,931.20254 L 398.31986,931.56421 L 402.17768,921.31688 L 421.82845,920.95521 L 427.85629,914.92736 L 427.85629,911.79289 L 426.04794,903.35391 L 432.07578,902.02778 L 433.04023,904.55947 L 444.13146,901.425 L 443.64924,898.8933 L 460.04497,894.91493 L 465.8317,886.23483"
       style="opacity:1;fill:none;fill-rule:evenodd;stroke:#ffffff;stroke-width:2;stroke-linecap:butt;stroke-linejoin:round;stroke-miterlimit:4;stroke-dasharray:none;stroke-opacity:1;display:inline"
       id="path2065" />
    <path
       d="M 569.56811,676.72612 L 573.64411,688.73961 L 571.71337,690.24129 L 571.71337,698.17878 L 569.56811,698.17878 L 575.57485,730.57229"
       style="opacity:1;fill:none;fill-rule:evenodd;stroke:#ffffff;stroke-width:2;stroke-linecap:butt;stroke-linejoin:round;stroke-miterlimit:4;stroke-dasharray:none;stroke-opacity:1;display:inline"
       id="path2069" />
    <path
       d="M 627.17261,809.20865 L 623.10485,806.33314 C 622.01406,804.44081 622.50149,803.35798 623.21624,802.00965 L 625.4564,798.68037 L 625.55955,791.49785 L 585.44307,742.37126 L 585.6576,731.00135 L 518.51078,728.2125 L 506.71181,730.57229 L 503.06486,730.35777 L 489.76421,734.21924 L 470.45682,738.7243 L 464.87913,745.1601 L 446.42984,756.53001 L 440.63762,758.8898 C 421.04055,770.55786 415.76621,772.5419 418.75591,794.28669 C 415.49248,801.12942 410.05848,806.23569 403.95358,810.80524"
       style="opacity:1;fill:none;fill-rule:evenodd;stroke:#ffffff;stroke-width:2;stroke-linecap:butt;stroke-linejoin:round;stroke-miterlimit:4;stroke-dasharray:none;stroke-opacity:1;display:inline"
       id="path2071" />
    <path
       d="M 490.62232,734.21924 C 464.23555,723.35586 437.84878,714.07471 411.46201,701.18215 C 402.27717,698.19689 396.76352,693.11382 391.51103,687.8815 C 372.03691,688.94405 373.98618,664.38816 365.55332,651.84103 L 365.33879,629.95932 C 361.53143,624.31599 359.2755,619.65989 356.32119,616.66041 C 350.02702,610.27982 352.04301,606.74408 349.03477,600.14012"
       style="opacity:1;fill:none;fill-rule:evenodd;stroke:#ffffff;stroke-width:2;stroke-linecap:butt;stroke-linejoin:round;stroke-miterlimit:4;stroke-dasharray:none;stroke-opacity:1;display:inline"
       id="path2073" />
    <path
       d="M 41.222531,656.04339 L 49.959915,656.04339 L 51.528164,652.68286 L 59.593442,653.13093 L 69.899074,665.45288 L 75.948033,666.34903 L 112.91389,681.3594 L 127.70023,688.08047 L 178.55629,704.43506 L 184.82928,711.82823 L 206.33669,720.78965"
       style="fill:none;fill-rule:evenodd;stroke:#ffffff;stroke-width:2;stroke-linecap:butt;stroke-linejoin:round;stroke-miterlimit:4;stroke-dasharray:none;stroke-opacity:1"
       id="path1899" />
    <path
       d="M 321.2669,852.29849 L 295.95089,860.81183 C 293.85989,860.45452 291.76889,861.64106 289.67789,863.05219 L 272.87523,869.10115 C 268.99195,870.82296 265.10867,872.85528 261.22539,874.02993 C 255.77386,876.30618 250.32233,880.31054 244.8708,883.66346 L 243.07851,881.87117 L 233.89306,885.45574 L 228.96428,887.47205 L 221.5711,889.04031 C 220.82134,892.02447 219.25519,894.19224 217.31443,895.98541 C 216.27494,899.49981 213.08719,901.40301 209.69722,903.15454 L 193.34263,903.15454 C 190.37025,901.31038 186.63546,901.62972 180.57261,906.96315 C 177.36143,909.18784 174.15026,910.14988 170.93908,911.21982 C 162.93881,912.50252 155.79445,915.92498 148.9836,920.18124 C 129.73906,918.98119 137.81473,911.47647 140.69429,905.17086 L 131.2848,905.17086 L 126.35602,901.81033 L 118.29074,901.81033"
       style="fill:none;fill-rule:evenodd;stroke:#ffffff;stroke-width:2;stroke-linecap:butt;stroke-linejoin:round;stroke-miterlimit:4;stroke-dasharray:none;stroke-opacity:1"
       id="path1901" />
    <path
       d="M 170.57023,911.44386 C 169.35387,915.71029 169.1148,921.98341 171.0183,924.43792 C 172.89167,926.85357 176.40192,931.85128 180.09024,938.5774 C 183.79672,945.33665 186.69832,947.99935 189.37036,950.98643 C 192.0424,953.97351 196.31617,955.61593 200.55121,957.19108 C 225.7679,965.83342 250.77706,975.72089 275.78769,985.5996 C 282.08807,988.01772 285.97351,994.15871 286.5414,1003.2984 L 287.14963,1065.6123 C 288.1888,1070.3565 287.74417,1076.6082 287.09104,1083.1691 C 286.90343,1085.0538 287.58873,1096.5737 287.54404,1104.0352 C 286.92357,1108.4053 289.29623,1110.161 288.7291,1114.6895 L 293.03687,1178.8292 C 285.0894,1178.6468 281.49249,1177.2743 281.32447,1178.558 L 279.14823,1184.9592"
       style="fill:none;fill-rule:evenodd;stroke:#ffffff;stroke-width:2;stroke-linecap:butt;stroke-linejoin:round;stroke-miterlimit:4;stroke-dasharray:none;stroke-opacity:1"
       id="path1903" />
    <path
       d="M 533.75387,899.65422 L 542.21909,890.96624 C 542.46397,888.86162 543.60943,887.83769 545.33785,887.51332 L 596.2405,834.2716 L 608.49278,834.16021 C 614.31539,833.64816 615.90349,829.64888 616.73522,825.0267 C 623.82509,813.66228 631.59412,803.65619 639.56902,794.06184 C 640.73078,793.46432 641.8041,791.98235 643.2447,794.17323 L 648.59115,808.98735 L 651.8213,808.87596 C 665.04206,803.01208 680.63164,798.92482 695.03843,793.95046 C 695.66471,796.72262 697.61778,797.8363 699.38242,799.18552 L 702.27842,798.73999 L 722.77314,792.50246 C 724.58814,790.58733 726.03206,788.81135 730.12451,786.04217 L 747.83462,781.80956 C 748.04334,777.72547 746.19987,773.64137 744.38171,769.55728 L 753.29246,766.66129 L 753.96076,760.98068 C 755.3204,759.73098 756.65756,758.32399 758.30475,759.08715 C 760.3227,762.67673 759.94235,764.34766 760.64383,766.88406 C 761.74479,768.32447 762.84064,769.68828 763.6512,766.77268 L 762.31459,744.38442"
       style="fill:none;fill-rule:evenodd;stroke:#ffffff;stroke-width:2;stroke-linecap:butt;stroke-linejoin:round;stroke-miterlimit:4;stroke-dasharray:none;stroke-opacity:1"
       id="path1905" />
    <path
       d="M 879.62925,972.56629 L 876.14822,971.4952 L 875.61268,968.28194 L 823.39724,967.74641 C 822.34819,958.75384 821.78364,950.40308 822.8617,940.70148 L 827.94936,937.22045 C 824.87705,932.40535 821.28447,923.9484 818.84513,923.56411 C 819.93016,919.45828 820.52386,915.35245 820.18399,911.24662 L 815.89964,902.94571 L 812.41861,902.67794 L 799.56558,879.38182 L 801.70776,878.5785 C 800.62458,871.1883 801.48217,860.88695 801.70776,851.53359 C 806.11335,849.69118 809.43151,846.76134 812.41861,843.50044 L 803.04661,831.98627 C 793.45987,826.2447 784.97399,825.45698 776.80501,826.0953 C 768.87872,820.63302 761.28386,814.8393 752.70557,810.02901 C 748.42123,808.46918 744.13689,802.33846 739.85254,798.24706 L 729.945,786.19735"
       style="fill:none;fill-rule:evenodd;stroke:#ffffff;stroke-width:2;stroke-linecap:butt;stroke-linejoin:round;stroke-miterlimit:4;stroke-dasharray:none;stroke-opacity:1"
       id="path1907" />
    <path
       d="M 423.03807,427.01132 L 416.97766,430.25796 C 415.4943,430.36185 414.29339,430.74819 413.73101,431.77306 C 411.95016,432.76834 409.89474,433.68124 407.45416,434.4786 L 400.6362,434.80327 L 398.36355,433.07172 C 396.99517,433.04535 395.54528,432.69294 394.35935,433.39639 L 369.70323,432.33893 L 369.05107,431.65564 L 356.15714,432.53061 L 339.36441,441.67994 L 338.94992,442.68788 L 332.67307,446.05831 C 331.89508,447.7394 330.80734,447.56195 329.75108,447.57341 C 325.95172,448.65176 324.10177,450.37991 321.95914,452.01049 C 319.48636,452.7017 318.74743,452.09251 317.30561,452.0105 C 316.59291,450.95557 315.46492,450.31594 314.49184,449.5214 C 311.9306,449.8057 309.36935,447.61018 306.80811,446.59942 C 303.52181,446.55976 300.8601,447.14471 299.01616,448.54741 C 296.41884,450.24337 295.3556,448.23759 293.28042,448.22274 C 288.50693,448.18671 285.42935,447.69393 282.35004,445.40898 C 280.45174,443.77385 279.52329,444.72501 278.45407,445.30076"
       transform="translate(-83.14286,299.1164)"
       style="fill:none;fill-rule:evenodd;stroke:#ffffff;stroke-width:2;stroke-linecap:butt;stroke-linejoin:round;stroke-miterlimit:4;stroke-dasharray:none;stroke-opacity:1"
       id="path4713" />
    <path
       d="M 635.45036,1007.3069 C 634.6065,1007.0736 634.0355,1007.4405 632.7339,1006.2002 C 630.8468,1004.1599 629.68267,1001.3966 628.37224,998.77958 C 626.41942,997.95248 628.63853,996.61321 626.90043,995.68939 C 625.16233,994.76558 626.254,993.79171 626.12078,992.81912 C 625.55233,990.26748 624.55467,988.02242 623.2766,985.97766 L 603.4565,983.16059 C 604.39066,981.53956 612.10397,982.42387 617.24002,982.35571 C 618.65774,983.20691 620.04827,983.62306 621.36502,982.85876 C 620.62765,978.94193 616.64923,975.52975 615.12722,971.6911 C 613.70769,972.05993 612.09649,972.36471 610.16451,971.6911 C 608.23252,971.01749 606.6642,971.57833 604.91404,971.6911 C 605.98458,970.88574 607.04665,970.07884 607.02684,969.07524 C 606.61839,967.23512 604.63436,965.58699 603.35589,963.84354 L 610.30057,969.61895 C 612.17861,968.88797 613.75222,968.71451 615.63027,968.87403 C 615.94014,968.99798 613.94482,962.89614 613.11503,963.03867 C 611.07142,963.38969 607.90269,961.37487 608.58759,960.69754 C 610.00897,960.79673 611.61461,961.45471 612.59008,960.70015 C 611.8385,957.43975 608.78734,953.97602 607.78272,950.66368 C 606.59144,950.77851 604.84262,952.14781 604.76443,949.7582 C 605.5508,949.11352 606.03415,948.41834 605.60997,947.5719 C 604.38071,947.06907 603.863,945.8547 603.09473,944.89089 C 601.1403,946.1339 599.47364,943.81554 595.78567,943.28113 C 597.66576,943.05893 599.2248,942.44955 600.30477,941.93776 C 599.41161,941.42772 598.17266,941.16916 598.32541,939.89846 C 598.93664,938.73203 599.53677,937.89417 600.94126,936.98078 C 598.51515,934.0624 596.85625,932.55204 595.30712,929.9381 C 594.3993,930.65256 593.49934,931.44561 592.69127,933.15761 L 591.44591,930.29154 C 592.18786,930.10695 593.04308,930.07094 593.59676,929.13323 C 594.00139,926.68615 593.56842,925.83018 592.48609,925.55091 C 590.70555,925.09148 590.50458,922.13621 592.47911,920.69818 C 591.51075,919.51835 591.50803,917.91991 591.50857,916.74008 C 590.70454,915.98459 590.49882,914.98977 590.17603,914.04178 C 588.69269,913.75514 587.75002,914.14432 587.48407,915.37942 C 585.06944,913.18081 582.69287,914.50025 580.24018,915.37942 C 581.17142,914.22218 582.12767,913.14413 588.16645,912.48885 C 588.8917,912.20401 588.06196,908.92884 586.45348,904.48387 C 584.94336,903.83637 584.37747,906.29135 583.52225,907.79565 C 583.9504,906.53677 584.58255,904.74949 583.43519,904.08143 C 582.44665,904.45691 581.10941,905.2864 580.331,904.27513 C 579.53407,903.23979 578.6044,903.79911 577.70305,904.01053 C 576.80449,901.47291 575.02215,899.08258 573.57545,896.63632 C 572.75592,897.49081 571.16771,897.19228 569.77939,897.19358 L 569.56201,889.75942 C 566.19198,883.23398 563.02942,876.85215 559.47655,870.55132 L 564.63735,867.46214 L 559.59071,859.41076 L 558.533,860.21564 C 557.96466,858.38562 557.29065,857.82358 556.62403,857.17285 L 557.41796,856.35702 C 556.477,855.78977 555.62031,854.20929 555.07192,852.95504 C 554.37898,851.35229 553.18677,851.28876 552.75624,850.02248 C 551.83893,847.97072 551.24987,847.37925 549.83158,845.82846 L 548.42304,846.73395 C 548.70693,845.20507 548.75178,843.61644 548.22703,841.8854 C 546.97505,840.96232 546.12107,842.03242 545.63881,841.59191 C 544.16234,840.68027 544.48197,840.00306 543.94982,838.90256 L 543.49317,833.85592 C 542.20974,829.75856 540.92724,828.81879 540.02083,824.87716 C 538.70397,821.29418 537.93328,820.28716 536.83106,817.87116 C 534.59832,812.97711 532.63488,808.88003 531.49091,809.92699 C 531.31146,806.84572 529.94429,805.5158 528.70356,803.81169 C 526.47772,800.40721 524.93333,798.8767 523.06919,796.46689 L 517.43528,789.12268 C 516.64722,789.18966 516.45432,789.10932 516.50529,791.88528 C 515.78921,791.95732 515.18551,790.67467 514.44383,789.23137 C 514.58819,788.23811 515.33447,787.76823 516.22796,787.37427 C 513.71522,784.99318 512.85166,782.61208 511.59992,780.23099 C 512.17063,778.6787 521.92837,776.68893 527.49624,774.89868 C 531.88953,774.3105 536.28281,774.2711 540.6761,772.18222 C 544.80181,771.42963 552.3557,772.8586 559.28888,773.89258 C 560.65147,773.68516 561.04358,772.9925 560.79802,771.981 L 548.82548,752.76456 C 550.60782,751.39299 552.74517,750.26994 557.17608,750.75237 C 563.73451,746.26094 568.8068,739.98614 574.07819,733.95027 L 591.18213,716.94754 C 597.94227,722.75151 609.02091,728.81862 610.39857,732.34081 L 620.86197,730.93227 C 621.47656,725.31271 620.71771,712.83141 626.29489,711.3134 L 629.41378,710.91096 C 635.02834,705.51481 632.04428,700.4844 632.63329,695.11525 C 633.16594,690.01459 636.61614,687.83148 641.15333,686.73535 C 641.93866,683.23058 643.41875,681.11532 645.81315,680.82868"
       transform="translate(-83.14286,299.1164)"
       style="fill:none;fill-rule:evenodd;stroke:#ffffff;stroke-width:2;stroke-linecap:butt;stroke-linejoin:round;stroke-miterlimit:4;stroke-dasharray:none;stroke-opacity:1"
       id="path4780" />
    <path
       d="M 527.50813,774.79546 L 512.82936,760.71214 C 510.50368,759.64934 509.25159,757.68705 508.09223,755.79117 C 506.24567,755.05122 504.41207,754.26591 502.40021,754.10452 C 502.67708,760.06589 499.73684,765.05901 495.4774,770.03301 L 490.09959,776.23424 C 484.68392,779.72006 478.42482,782.83675 471.83529,785.05265 C 470.41274,784.91949 466.79887,781.85412 465.40326,781.65097 C 464.97604,781.58878 461.51407,781.54304 461.51407,781.54304 L 461.48206,783.27456 L 459.26302,783.22605 C 457.94494,784.00946 458.18613,785.1827 458.17181,786.29205 C 455.72535,785.82291 453.27889,785.71121 450.83243,785.75239 C 449.73212,785.33212 448.94097,785.06643 447.04753,784.24959 C 447.05922,785.07741 447.66254,785.71824 447.73442,786.97166 C 446.35909,789.83854 444.90649,792.3518 444.45619,794.75102 L 440.567,792.47257 L 438.19249,792.46795 L 438.20437,789.59768 L 429.81405,790.01389 C 428.88014,788.53394 429.13255,786.46084 428.81428,784.67307 C 426.50355,783.95677 424.06319,782.72196 421.58283,781.32717 L 420.73587,783.13727 C 420.31365,783.758 419.71674,784.13158 418.08278,783.32276 C 416.76927,783.08749 404.41729,778.04738 395.30318,774.95554 L 393.62016,775.73847 C 387.18816,772.10294 380.87946,770.31675 374.52443,767.83566 C 373.68844,768.59325 373.47443,770.07648 373.12131,771.39742 C 372.25105,770.69284 371.34173,769.84675 370.78245,769.83059"
       transform="translate(-83.14286,299.1164)"
       style="fill:none;fill-rule:evenodd;stroke:#ffffff;stroke-width:2;stroke-linecap:butt;stroke-linejoin:round;stroke-miterlimit:4;stroke-dasharray:none;stroke-opacity:1"
       id="path5667" />
    <path
       d="M 594.39605,248.96953 L 553.40322,249.13985 L 546.0601,250.67518 C 545.00664,245.01473 542.23014,247.50799 542.58924,251.58518 C 534.78033,254.82683 525.87458,259.47767 521.41747,260.41241 C 516.94854,261.34962 478.36166,277.09612 478.36166,277.09612 C 475.39538,273.72374 472.58311,276.2081 472.32994,279.54263 C 468.36549,281.71307 464.63664,283.35344 461.28131,284.15337 C 456.04905,284.91657 453.01896,283.57599 454.28123,288.47824 C 451.03919,291.0432 447.23513,292.70894 443.23498,294.06093 C 441.55755,292.2039 439.65127,290.52091 437.82502,291.04507 C 435.95568,286.15033 431.10529,284.18744 431.56341,292.92224 C 431.15986,295.48429 429.72406,298.04634 431.56341,300.60839 C 428.88241,301.44206 427.9587,304.06183 423.58733,305.24808 C 420.53222,306.07715 418.6607,308.78319 415.60316,309.84452 C 413.56783,309.66135 410.67139,309.75893 409.36156,310.69337 C 408.1167,311.58147 406.83917,311.46432 406.33596,310.39683 C 400.13978,297.25246 397.42137,308.59346 397.40272,311.42594 C 397.48219,314.22344 398.32801,316.87188 394.55838,319.22525 C 392.36331,321.16292 395.01634,321.35402 395.0098,322.81403 C 389.57171,327.16502 386.08486,328.91041 380.39146,333.5101 C 375.20247,337.70227 372.80206,327.87473 368.29943,331.87234 C 366.71027,333.10383 366.30651,333.88246 367.4882,336.28758 C 368.00519,340.7267 365.97187,342.17768 363.96741,343.825 L 324.86842,376.61593 C 317.91951,376.29373 316.55325,380.22313 315.93042,384.87143 C 313.15757,388.91084 310.67373,392.90896 306.89475,397.0921 C 303.80931,399.78757 301.46933,402.84366 300.51005,406.75407 C 298.56624,409.73398 296.31949,412.80348 294.04368,415.48214 C 292.40254,417.41378 290.07874,419.3251 289.05687,421.3095 C 288.15237,426.61927 286.01382,431.66958 282.11038,435.8278 C 277.37885,440.86817 277.34037,444.0719 278.69432,447.2147 C 277.61822,451.01014 274.16742,455.21431 271.86099,458.65876 L 263.09331,466.74274 C 258.76037,466.04769 256.19332,470.71396 253.69912,472.20989 C 253.69912,472.20989 228.36745,492.37371 227.33417,497.32896 C 223.25683,516.88245 220.71707,527.50383 217.48974,543.14931 C 215.95993,550.53844 218.62843,557.09826 218.62843,557.09826 C 218.62843,557.09826 222.76899,566.44243 223.80971,572.52894 C 225.06184,579.8518 224.82839,582.20958 220.61875,586.36115 C 217.67699,589.26234 212.66605,592.40857 208.66408,592.13484 C 202.15558,591.68965 203.38029,595.29353 202.79948,597.59363 L 200.97636,604.92323 L 131.80334,618.87218 C 128.23678,620.19476 124.46787,620.43813 121.32048,623.99628 L 117.97469,623.99628 C 113.65455,620.04571 110.73475,622.38253 107.72053,623.94148 L 98.552645,623.93791"
       transform="translate(-83.14286,299.1164)"
       style="fill:none;fill-rule:evenodd;stroke:#ffffff;stroke-width:2;stroke-linecap:butt;stroke-linejoin:round;stroke-miterlimit:4;stroke-dasharray:none;stroke-opacity:1"
       id="path7439" />
    <path
       d="M 121.87489,623.75796 L 167.60275,653.37355 C 166.04854,662.0616 175.63419,666.29721 182.35698,667.55825 C 188.24658,670.94701 192.45518,674.74502 198.30384,682.55589 C 204.14301,689.60988 208.04407,684.52049 211.67559,682.98915 L 202.37326,711.46569"
       transform="translate(-83.14286,299.1164)"
       style="fill:none;fill-rule:evenodd;stroke:#ffffff;stroke-width:2;stroke-linecap:butt;stroke-linejoin:round;stroke-miterlimit:4;stroke-dasharray:none;stroke-opacity:1"
       id="path9211" />
  </g>
  <g
     style="opacity:1;display:inline"
     id="layer14">
    <path
       d="M 514.7526,596.46 L 526.82134,587.04526 C 527.94393,586.16954 529.62806,586.40834 530.96896,587.15841 L 539.87269,592.13893 L 538.15801,595.7097 L 516.7662,601.01156 C 515.81098,601.23416 514.85598,600.70457 514.70452,599.82961 C 514.5192,598.75912 514.20298,597.19136 514.7526,596.46 z "
       style="fill:#0055d4;fill-opacity:1;fill-rule:evenodd;stroke-width:1px;stroke-linecap:butt;stroke-linejoin:miter;stroke-opacity:1"
       id="path2247" />
    <path
       d="M 511.73032,586.34871 C 512.0433,585.48586 513.06541,584.6336 513.70416,583.75511 C 514.13667,583.16026 514.08995,581.9448 514.01722,581.45088 C 513.78616,579.88167 512.6309,577.79303 511.29719,575.7927 C 510.05894,573.93554 508.92033,571.79479 508.02275,569.55615 C 505.70697,563.78045 503.4136,558.23614 503.21158,554.47497 C 502.68467,554.0767 503.09925,553.01946 503.68367,552.52962 C 504.02554,552.01038 504.01261,551.61947 504.81872,551.82105 L 502.54593,546.21137 C 502.54659,546.82601 502.32512,548.0795 502.90874,549.31927 C 503.03252,549.86362 503.08431,550.0043 502.89093,550.54865 L 502.76999,552.1232 C 502.84624,552.86341 503.14548,553.67148 502.21238,554.10449 L 502.22727,555.21654 C 502.54936,557.35992 502.85378,560.40938 503.98422,563.61676 C 505.66194,568.37688 508.43116,573.57157 510.82654,577.52827 C 510.38884,578.07674 509.3401,577.98947 509.034,578.62896 C 508.92007,578.86698 509.16376,579.15063 509.21609,579.69936 C 509.43728,582.01871 509.89848,583.93205 510.76453,585.98217 C 511.2745,587.18937 511.59655,586.7748 511.73032,586.34871 z "
       style="opacity:1;color:#000000;fill:#0055d4;fill-opacity:1;fill-rule:evenodd;stroke:none;stroke-width:1px;stroke-linecap:butt;stroke-linejoin:miter;marker:none;marker-start:none;marker-mid:none;marker-end:none;stroke-miterlimit:4;stroke-dasharray:none;stroke-dashoffset:0;stroke-opacity:1;visibility:visible;display:inline;overflow:visible;enable-background:accumulate"
       id="path2249" />
    <path
       d="M 306.06069,634.48487 L 305.28103,629.06171 C 305.39018,628.52004 305.65097,628.09968 306.36273,628.0401 L 309.18718,628.1002 L 308.04538,631.28522 L 309.12709,631.58569 C 311.45186,630.79129 313.386,630.87775 312.19191,633.26834 C 311.68451,633.56887 310.93898,633.66529 311.2304,634.65052 L 312.3722,635.13128 C 312.21864,636.87403 311.84566,638.61677 312.61258,640.35952 C 313.35382,642.05009 313.83654,644.34823 312.75628,645.21723 C 312.0926,645.75112 310.25162,645.40863 308.76652,644.86662 C 307.9877,644.78041 307.49167,645.02044 307.92363,645.90286 C 307.70142,647.76756 307.67548,649.7304 307.00601,651.37148 C 306.21349,652.13559 304.10419,653.21959 304.13923,650.52859 C 304.15618,649.24903 304.37961,647.09012 304.37961,647.09012 C 304.54014,645.87129 305.17356,645.0578 306.18245,644.56614 C 306.98901,644.23621 307.7862,643.88752 308.9468,644.26567 C 310.03599,644.58396 311.12631,645.75266 312.3241,644.87633 C 314.13837,642.78193 312.07571,640.73298 311.59097,639.03743 C 310.91621,637.29926 309.74569,635.72634 308.34585,634.22986 L 306.06069,634.48487 z "
       style="opacity:1;color:#000000;fill:#0055d4;fill-opacity:1;fill-rule:evenodd;stroke:none;stroke-width:1px;stroke-linecap:butt;stroke-linejoin:miter;marker:none;marker-start:none;marker-mid:none;marker-end:none;stroke-miterlimit:4;stroke-dasharray:none;stroke-dashoffset:0;stroke-opacity:1;visibility:visible;display:inline;overflow:visible;enable-background:accumulate"
       id="path2982" />
    <path
       d="M 561.54134,669.63888 C 562.8857,672.25002 563.72672,675.16564 565.43213,678.39094 C 567.13754,681.61624 566.74202,683.54614 566.34837,685.92517 C 565.87793,688.51773 565.36155,691.10724 566.34837,693.79695 C 567.08585,695.88095 567.70839,697.89996 568.64733,699.58521 C 569.24302,700.65437 569.27768,701.95777 569.51977,703.18692 C 569.51977,703.18692 569.48595,704.08288 569.18221,704.81744 C 568.83702,705.65225 569.54749,706.19811 570.5909,706.11834 C 571.0386,707.54503 571.51852,707.5221 572.01605,706.70667 C 572.02744,706.62692 572.8613,706.67246 573.82356,706.77006 C 573.99527,706.78747 576.02452,709.39015 576.20046,709.41047 C 576.38393,709.43165 574.7141,706.87057 574.89342,706.89398 C 575.45801,706.9677 575.93404,706.66726 576.28185,706.67718 C 576.60575,706.68642 577.44204,707.34945 577.75305,707.40029 C 578.42614,707.51031 578.44477,707.63633 578.57914,707.16112 C 578.71979,706.66371 578.00891,706.85278 577.61894,706.70199 C 577.22097,706.5481 576.68882,706.26768 576.48439,706.24543 C 574.17664,705.99421 571.78127,701.88079 572.01605,701.66873 C 571.57432,700.79384 570.90971,699.97252 570.71803,698.99325 C 570.14735,696.07763 569.07711,693.92642 568.28241,691.42038 C 567.65277,689.43481 568.42094,688.71937 569.53226,685.53846 C 570.19603,683.63857 570.50067,680.6851 568.41802,675.90886 C 567.82757,674.55477 567.19544,673.6449 566.63678,672.62422 C 565.19898,669.9973 563.95011,668.12529 562.94227,667.1027 C 562.20568,666.35532 561.61076,665.66869 561.07425,665.23556 C 559.58958,664.03696 559.15456,664.43769 560.08844,665.68568 C 560.34961,666.03469 560.91147,666.4197 561.25492,667.17318 C 561.49153,667.69226 561.17874,668.93461 561.54134,669.63888 z "
       style="opacity:1;color:#000000;fill:#0055d4;fill-opacity:1;fill-rule:evenodd;stroke:none;stroke-width:1px;stroke-linecap:butt;stroke-linejoin:miter;marker:none;marker-start:none;marker-mid:none;marker-end:none;stroke-miterlimit:4;stroke-dasharray:none;stroke-dashoffset:0;stroke-opacity:1;visibility:visible;display:inline;overflow:visible;enable-background:accumulate"
       id="path2984" />
    <path
       d="M 611.52479,749.12615 C 612.22741,753.03445 612.70397,757.16882 612.79279,761.69093 C 613.20226,765.48654 613.35877,769.36647 614.63716,772.87244 C 614.30948,777.02228 613.53783,781.17212 615.55935,785.32196 C 616.51813,790.99129 616.85456,796.9706 615.09826,802.03658 C 614.69539,804.40329 616.54086,805.87066 617.51899,807.68497 L 618.67173,807.33915 C 616.37192,800.8901 617.48662,796.73602 620.40083,793.96746 C 616.24793,785.40699 617.28621,773.93362 616.48153,763.42003 C 615.82447,754.39031 614.01491,752.04567 611.52479,749.12615 z "
       style="opacity:1;color:#000000;fill:#0055d4;fill-opacity:1;fill-rule:evenodd;stroke:none;stroke-width:1px;stroke-linecap:butt;stroke-linejoin:miter;marker:none;marker-start:none;marker-mid:none;marker-end:none;stroke-miterlimit:4;stroke-dasharray:none;stroke-dashoffset:0;stroke-opacity:1;visibility:visible;display:inline;overflow:visible;enable-background:accumulate"
       id="path2986" />
    <path
       d="M 624.4354,810.79736 C 621.97988,810.76209 620.20374,810.224 618.05429,808.92863 L 619.66397,807.70252 C 622.02293,807.75582 624.33744,806.74045 626.51031,807.45442 C 631.68302,809.1541 633.58254,816.68214 631.35179,822.90105 C 629.40531,824.68067 628.64897,824.07999 629.16159,820.9414 C 628.86465,818.07564 627.93621,813.61261 624.4354,810.79736 z "
       style="opacity:1;color:#000000;fill:#0055d4;fill-opacity:1;fill-rule:evenodd;stroke:none;stroke-width:1px;stroke-linecap:butt;stroke-linejoin:miter;marker:none;marker-start:none;marker-mid:none;marker-end:none;stroke-miterlimit:4;stroke-dasharray:none;stroke-dashoffset:0;stroke-opacity:1;visibility:visible;display:inline;overflow:visible;enable-background:accumulate"
       id="path2988" />
    <path
       d="M 534.05961,500.8761 C 534.01816,499.89451 533.58198,498.93642 534.02707,498.26496 C 534.53256,497.50239 535.19148,497.34345 536.23047,497.92994 C 537.29793,498.5325 537.56165,500.71623 537.58103,501.87919 C 537.60041,503.04215 537.01752,503.24744 536.308,502.58178 C 535.65638,501.97044 534.10974,502.06309 534.05961,500.8761 z "
       style="opacity:1;color:#000000;fill:#0055d4;fill-opacity:1;fill-rule:evenodd;stroke:none;stroke-width:1px;stroke-linecap:butt;stroke-linejoin:miter;marker:none;marker-start:none;marker-mid:none;marker-end:none;stroke-miterlimit:4;stroke-dasharray:none;stroke-dashoffset:0;stroke-opacity:1;visibility:visible;display:inline;overflow:visible;enable-background:accumulate"
       id="path2990" />
    <path
       d="M 521.97771,492.55543 C 521.7148,493.22053 523.75416,495.58168 524.67855,495.87453 C 525.62681,496.17494 526.49008,495.91963 526.04524,495.1261 C 525.65292,494.42626 524.33898,493.43113 523.6698,492.4578 C 523.35539,492.00049 522.38726,491.51934 521.97771,492.55543 z "
       style="opacity:1;color:#000000;fill:#0055d4;fill-opacity:1;fill-rule:evenodd;stroke:none;stroke-width:1px;stroke-linecap:butt;stroke-linejoin:miter;marker:none;marker-start:none;marker-mid:none;marker-end:none;stroke-miterlimit:4;stroke-dasharray:none;stroke-dashoffset:0;stroke-opacity:1;visibility:visible;display:inline;overflow:visible;enable-background:accumulate"
       id="path2992" />
    <path
       d="M 513.01785,483.17857 C 514.05707,487.77858 517.31931,487.66344 519.73659,488.74685 C 520.12647,488.92159 539.57756,488.85651 539.89285,488.51675 C 540.11858,488.27351 539.01849,485.98572 539.01849,485.98572 C 531.37986,485.96047 523.78886,486.30917 516.2632,484.24191 C 515.57404,484.0526 514.95405,483.27815 514.20324,482.97847 C 513.87353,482.84687 512.94198,482.84274 513.01785,483.17857 z "
       style="opacity:1;color:#000000;fill:#0055d4;fill-opacity:1;fill-rule:evenodd;stroke:none;stroke-width:1px;stroke-linecap:butt;stroke-linejoin:miter;marker:none;marker-start:none;marker-mid:none;marker-end:none;stroke-miterlimit:4;stroke-dasharray:none;stroke-dashoffset:0;stroke-opacity:1;visibility:visible;display:inline;overflow:visible;enable-background:accumulate"
       id="path2994" />
    <path
       d="M 472.61419,478.04249 L 478.01587,476.93612 C 479.77304,476.55195 481.53022,476.56131 483.28739,476.87104 L 494.74154,479.3441 L 494.28598,481.16635 L 484.52391,478.88853 C 483.86195,478.59411 483.25567,478.57811 482.76674,479.14885 L 482.5715,480.64571 L 483.80803,481.88223 L 500.5337,485.52674 L 500.27338,487.02359 L 485.04456,483.89973 C 483.05724,484.20077 482.57986,482.74021 481.53021,481.94731 C 480.4531,480.15035 479.19607,480.33251 477.95079,480.38538 C 478.10915,478.55229 477.09689,478.67023 476.2587,478.49805 L 473.5904,479.08377 L 472.61419,478.04249 z "
       style="opacity:1;color:#000000;fill:#0055d4;fill-opacity:1;fill-rule:evenodd;stroke:none;stroke-width:1px;stroke-linecap:butt;stroke-linejoin:miter;marker:none;marker-start:none;marker-mid:none;marker-end:none;stroke-miterlimit:4;stroke-dasharray:none;stroke-dashoffset:0;stroke-opacity:1;visibility:visible;display:inline;overflow:visible;enable-background:accumulate"
       id="path2996" />
    <path
       d="M 136.24998,487.93706 L 115.86619,495.44269 L 109.39239,486.6044 L 105.85411,492.20319 L 101.70712,494.0048 L 100.56583,489.61832 C 92.468651,492.90789 83.714068,494.66352 74.69793,495.80886 C 62.219647,510.20866 62.433832,517.98392 60.398986,526.85484 C 50.202551,526.93875 38.543228,526.31688 30.018657,522.03257 C 28.569444,521.44379 27.214988,522.94061 27.684747,523.55451 C 31.600859,528.67226 39.051948,538.73694 38.578195,542.40667 C 38.149714,545.72572 28.692532,581.4671 28.692532,581.4671 L 30.621442,591.47331 L 28.451418,652.59564 C 32.376999,653.16059 36.461795,652.99763 40.989332,655.36845 L 34.599818,711.54795 C 23.425465,730.13311 12.303606,748.73139 -0.12055686,767.0041 L 68.114625,779.66257 C 72.688465,794.94274 66.2588,815.55795 60.760656,835.72151 L 38.698751,835.96262 C 31.867774,842.39047 25.867417,846.16034 20.615223,847.53608 L 20.615223,861.15901 L 26.160838,863.6907 L 24.352485,893.82991 L 20.73578,894.07103 L 15.551835,921.44701 L 14.762064,923.86498 L -8.0400279,928.8756 C -22.874435,934.07704 -28.645493,943.13522 -28.655484,954.64492 C -29.933292,956.40191 -20.214553,988.9338 -18.141601,988.24811 C -16.417737,989.09904 -17.140056,1004.1059 -17.812736,1004.2404 L 6.5969459,993.60813 L 6.8031005,1024.5313 L 22.470847,1024.119 C 23.725532,1025.1475 25.124382,1025.5993 27.006247,1024.119 L 79.163351,1023.9129 L 82.049515,1018.3467 L 96.892644,1017.7282 L 104.10805,1016.9036 L 104.93267,1012.7805 L 107.40653,1010.719 L 109.67423,1012.5744 L 118.95118,1010.5128 L 110.29269,1035.0452 L 122.86812,1039.3744 L 123.28043,1042.4668 L 126.99121,1043.0852 L 128.64045,1045.3529 L 128.8466,1068.4422 L 133.79431,1068.4422 L 142.86511,1082.8731 L 140.1851,1086.79 L 154.61592,1094.6239 L 153.99746,1097.7162 C 161.52842,1104.7998 172.143,1111.9921 184.9771,1116.2023 C 188.93045,1117.4992 192.49963,1118.4133 196.441,1121.9901 L 209.78728,1124.9026 L 210.02153,1137.1002 C 224.5467,1150.5204 237.57951,1164.0188 260.43528,1169.2792 C 268.52379,1174.3811 276.23364,1180.7272 282.96058,1190.3028 L 270.73256,1214.3298 C 270.73256,1214.3298 270.80053,1229.44 270.15695,1232.2288 C 272.43063,1233.6917 278.1728,1246.3034 277.70956,1247.5582 L 291.74553,1248.4342 C 290.13068,1251.3247 288.73411,1253.2487 286.75372,1255.183 C 284.92762,1257.3802 283.4341,1258.7217 283.00687,1261.7633 L 288.10921,1277.6151 C 285.60671,1282.8358 283.67912,1286.1716 281.31249,1290.4246 C 279.93382,1292.8608 279.94619,1295.0206 281.26174,1295.9561 L 286.58439,1298.146 C 286.58439,1298.146 282.10247,1313.3948 281.45889,1315.9691 C 280.96187,1317.0778 288.05189,1318.5897 288.05189,1318.5897 L 287.14874,1323.319 C 292.94096,1324.8051 298.13503,1326.064 304.4026,1324.6071 L 361.35236,1323.7338 L 361.70779,1314.9321 L 401.46317,1314.0846 L 400.22639,1311.8821 L 415.58084,1295.2489 L 416.24169,1291.989 L 420.52413,1288.8066 L 430.98068,1297.4131 L 431.58138,1299.3356 L 440.1406,1305.5503 L 450.03425,1308.2032 L 498.79857,1342.5995 C 498.79857,1342.5995 502.32036,1346.3373 506.84521,1344.969 C 509.1485,1344.2724 512.65635,1341.0991 514.45955,1338.1946 C 517.77767,1332.85 518.44356,1328.8127 521.02777,1326.5324 C 522.29993,1325.4099 529.22831,1319.6964 538.4229,1320.3165 C 545.04654,1320.7632 551.72934,1318.365 555.49208,1316.266 L 559.99833,1315.8008 L 554.69599,1306.9644 L 552.16486,1305.9326 L 575.08315,1287.4727 L 572.49287,1282.2561 L 589.64436,1266.3758 C 603.42463,1268.846 610.20515,1256.8881 614.45984,1239.7239 L 620.82401,1234.5632 C 620.82401,1234.5632 622.59889,1239.2266 624.6908,1242.077 C 626.98425,1245.2019 626.84671,1247.7959 626.84671,1247.7959 C 629.09169,1251.7296 632.45922,1249.6358 632.85345,1247.5814 C 633.36625,1233.4355 638.40547,1224.0676 645.93957,1217.3331 L 645.56785,1212.8281 C 649.47638,1210.8493 653.80703,1208.575 656.74865,1204.8557 L 662.25745,1194.0983 L 669.76797,1186.3054 C 672.48329,1186.1684 674.17468,1186.8316 677.26046,1185.5832 C 677.48951,1183.7449 677.84192,1182.1534 676.36723,1176.9076 C 677.47964,1175.5253 678.69972,1175.0044 679.6362,1172.2146 C 687.30825,1171.9617 693.88263,1170.2479 700.97195,1168.2468 C 710.63981,1169.105 719.78394,1165.7859 728.53231,1161.1272 L 729.39042,1153.8333 L 757.70793,1145.6813 L 759.20961,1149.3282 L 821.63685,1140.3181 C 836.5822,1128.5021 851.52756,1121.2401 866.47291,1113.7168 L 899.08095,1135.813 L 896.72116,1141.1762 L 915.81403,1157.4802 L 932.11805,1135.5985 L 912.59613,1119.2945 L 918.38835,1107.0665 L 925.2532,1104.9212 L 928.4711,1092.2641 C 929.68558,1087.9895 927.91662,1082.7656 935.33595,1080.4652 L 942.84438,1079.8216 L 943.70248,1077.4618 L 950.4844,1076.8921 C 951.30761,1072.661 947.80673,1071.2346 942.97597,1070.6708 L 942.24226,1058.3528 L 948.46354,1058.7818 L 948.79343,1063.4346 L 950.78186,1063.303 L 950.99639,1054.9365 L 947.34944,1054.722 L 924.7917,1023.7887 C 930.76157,1020.6918 935.2789,1015.8091 937.8688,1010.1004 L 878.79288,972.68086 L 884.41021,965.13279 L 884.70767,959.90122 C 887.61034,958.12516 890.47506,956.1783 893.07421,953.03637 L 904.01506,947.88773 C 903.00179,945.89734 901.4857,943.77463 897.57927,941.02288 L 897.2079,932.40937 C 902.00825,928.03703 906.86803,923.68346 914.52687,920.2138 C 919.53322,919.9764 924.95337,920.29075 929.11468,918.92664 C 916.09646,896.49849 909.52715,886.79639 901.98517,871.11966 L 899.72453,871.08721 L 902.08433,835.69032 C 906.07913,830.86933 909.80407,826.01236 911.5235,820.88799 L 911.95255,810.59071 L 906.80391,810.59071 L 899.8399,818.20549 C 891.66461,820.00974 883.68835,820.61979 876.12661,818.74272 L 873.12323,785.4911 L 909.80728,783.13131 L 911.73802,754.17022 L 907.44749,754.38474 L 902.05908,718.98786 L 762.45996,744.64811 L 737.17106,741.13458 C 744.55816,739.84375 745.69746,734.75201 748.02899,730.57229 L 748.67257,703.32742 C 745.84302,699.08917 743.17364,693.47394 739.94859,693.84465 C 736.98731,694.18505 723.89793,675.42882 715.87524,666.21431 L 717.57995,659.46259 L 719.30767,619.23299 L 712.01376,610.86645 L 701.94003,615.11552 L 693.30848,633.89471 L 680.26383,639.18396 C 679.14713,641.66075 678.3374,644.37873 675.15283,645.23078 C 669.45889,646.72158 669.29168,656.07973 665.03244,656.91576 L 568.81651,675.80163 L 563.00973,676.08254 L 548.99698,629.74479 L 540.39249,629.74479 C 539.65731,626.81293 538.9972,623.88106 539.31986,620.9492 C 531.94796,612.00814 526.78618,602.53507 521.96756,594.52244 C 519.14625,589.83104 518.21558,584.35746 516.39108,579.25257 C 514.94352,575.20234 513.13559,571.64889 511.86045,567.74661 L 516.79456,566.0304 L 511.51658,547.72373 C 508.05227,530.09548 504.10172,512.20939 498.50211,494.73365 L 526.01921,487.29914 L 518.08172,456.40731 L 521.36633,456.02692 C 521.24149,455.16358 522.32692,452.79297 519.90335,452.79692 L 516.71163,446.48139 L 516.43222,435.16917 L 509.68274,435.15295 C 508.84805,427.54373 507.69771,420.13179 505.63918,413.28746 L 517.30655,412.38789 L 508.29643,372.99793 L 500.70507,372.95646 L 495.06969,353.22001 L 497.05812,351.07475 C 496.1473,347.00918 489.94637,323.44538 489.12063,322.32819 L 468.31155,327.90588 L 459.73049,328.1204 L 459.51596,340.13389 L 442.56836,338.84673 L 431.62751,343.13727 L 431.41298,337.7741 L 429.48224,334.98525 L 421.1157,334.77073 L 413.3537,339.98241 L 388.73389,343.17203 L 381.65694,331.80904 L 375.77609,337.1915 C 375.05154,345.04223 373.58413,355.0971 371.95192,359.65971 L 367.40336,362.90775 L 365.70888,361.41262 L 357.43583,363.9045 L 338.59718,362.30969 L 336.05272,356.2295 C 337.37508,348.49767 334.1714,341.77478 331.12153,335.09832 C 326.10454,336.22529 321.66442,337.10665 316.58973,337.41166 C 313.65538,339.32772 311.51129,340.91166 309.59166,342.97268 C 300.73715,342.90291 303.08507,341.26182 300.54163,339.92983 C 299.67033,339.62702 297.81678,340.03311 296.76226,340.65283 C 294.65376,341.89196 287.8657,345.25863 282.58513,346.96714 C 274.92201,349.02461 271.57388,351.08209 268.92411,353.13956 L 250.58384,352.94021 L 239.22085,319.15027 L 209.81662,320.04734 L 207.32474,325.23046 L 189.6822,325.13079 L 189.38318,327.32364 L 186.39292,325.13079 L 177.02343,343.37138 L 167.0559,337.68988 L 175.50712,355.0385 C 176.35268,357.05279 175.21914,357.32082 173.46652,357.0426 L 163.86628,351.24573 L 157.11465,357.71915 L 153.26171,354.2851 L 147.77183,351.64954 L 141.30789,351.88577 L 138.65901,361.29176 L 114.43789,376.8623 C 121.06298,385.96178 127.28519,395.16197 135.06011,403.97399 C 139.41051,410.9176 143.90756,418.00759 144.802,429.0082 L 142.97007,466.08743 L 137.33567,476.91006 L 136.24998,487.93706 z "
       transform="translate(83.14286,-299.1164)"
       style="opacity:1;fill:none;fill-rule:evenodd;stroke:#ffffff;stroke-width:3;stroke-linecap:butt;stroke-linejoin:bevel;stroke-miterlimit:4;stroke-dasharray:none;stroke-opacity:1;display:inline"
       id="path3162" />
  </g>
</svg>
